<mxfile host="app.diagrams.net" modified="2024-03-22T04:04:13.497Z" agent="Mozilla/5.0 (X11; Ubuntu; Linux x86_64; rv:124.0) Gecko/20100101 Firefox/124.0" etag="5GSbM1SO7PTJmzfXCzYK" version="24.0.7" type="device">
  <diagram name="Page-1" id="2XcqjXFXLbwjpzAktkpY">
    <mxGraphModel dx="1114" dy="615" grid="1" gridSize="10" guides="1" tooltips="1" connect="1" arrows="1" fold="1" page="1" pageScale="1" pageWidth="850" pageHeight="1100" math="0" shadow="0">
      <root>
        <mxCell id="0" />
        <mxCell id="1" parent="0" />
        <mxCell id="2I_HNkionEaUqbD5qXvZ-48" value="/user" style="swimlane;fontStyle=0;childLayout=stackLayout;horizontal=1;startSize=26;horizontalStack=0;resizeParent=1;resizeParentMax=0;resizeLast=0;collapsible=1;marginBottom=0;align=center;fontSize=14;" parent="1" vertex="1">
          <mxGeometry x="20" y="560" width="350" height="176" as="geometry" />
        </mxCell>
        <mxCell id="2I_HNkionEaUqbD5qXvZ-49" value="/ (get, auth) (not sure)" style="text;strokeColor=none;fillColor=none;spacingLeft=4;spacingRight=4;overflow=hidden;rotatable=0;points=[[0,0.5],[1,0.5]];portConstraint=eastwest;fontSize=12;whiteSpace=wrap;html=1;" parent="2I_HNkionEaUqbD5qXvZ-48" vertex="1">
          <mxGeometry y="26" width="350" height="30" as="geometry" />
        </mxCell>
        <mxCell id="2I_HNkionEaUqbD5qXvZ-50" value="/ (post, auth) (not sure)" style="text;strokeColor=none;fillColor=none;spacingLeft=4;spacingRight=4;overflow=hidden;rotatable=0;points=[[0,0.5],[1,0.5]];portConstraint=eastwest;fontSize=12;whiteSpace=wrap;html=1;" parent="2I_HNkionEaUqbD5qXvZ-48" vertex="1">
          <mxGeometry y="56" width="350" height="30" as="geometry" />
        </mxCell>
        <mxCell id="2I_HNkionEaUqbD5qXvZ-51" value="/all (get, auth, admin) (returns all users)" style="text;strokeColor=none;fillColor=none;spacingLeft=4;spacingRight=4;overflow=hidden;rotatable=0;points=[[0,0.5],[1,0.5]];portConstraint=eastwest;fontSize=12;whiteSpace=wrap;html=1;" parent="2I_HNkionEaUqbD5qXvZ-48" vertex="1">
          <mxGeometry y="86" width="350" height="30" as="geometry" />
        </mxCell>
        <mxCell id="2I_HNkionEaUqbD5qXvZ-52" value="/change-role/:userId (post, auth ,admin) (update users role)" style="text;strokeColor=none;fillColor=none;spacingLeft=4;spacingRight=4;overflow=hidden;rotatable=0;points=[[0,0.5],[1,0.5]];portConstraint=eastwest;fontSize=12;whiteSpace=wrap;html=1;" parent="2I_HNkionEaUqbD5qXvZ-48" vertex="1">
          <mxGeometry y="116" width="350" height="30" as="geometry" />
        </mxCell>
        <mxCell id="2I_HNkionEaUqbD5qXvZ-53" value="/:userId (delete, auth, admin) (deletes user)" style="text;strokeColor=none;fillColor=none;spacingLeft=4;spacingRight=4;overflow=hidden;rotatable=0;points=[[0,0.5],[1,0.5]];portConstraint=eastwest;fontSize=12;whiteSpace=wrap;html=1;" parent="2I_HNkionEaUqbD5qXvZ-48" vertex="1">
          <mxGeometry y="146" width="350" height="30" as="geometry" />
        </mxCell>
        <mxCell id="2I_HNkionEaUqbD5qXvZ-54" value="/" style="swimlane;fontStyle=0;childLayout=stackLayout;horizontal=1;startSize=26;horizontalStack=0;resizeParent=1;resizeParentMax=0;resizeLast=0;collapsible=1;marginBottom=0;align=center;fontSize=14;" parent="1" vertex="1">
          <mxGeometry x="20" y="462" width="200" height="86" as="geometry" />
        </mxCell>
        <mxCell id="2I_HNkionEaUqbD5qXvZ-55" value="/signup (post) (signup for account)" style="text;strokeColor=none;fillColor=none;spacingLeft=4;spacingRight=4;overflow=hidden;rotatable=0;points=[[0,0.5],[1,0.5]];portConstraint=eastwest;fontSize=12;whiteSpace=wrap;html=1;" parent="2I_HNkionEaUqbD5qXvZ-54" vertex="1">
          <mxGeometry y="26" width="200" height="30" as="geometry" />
        </mxCell>
        <mxCell id="2I_HNkionEaUqbD5qXvZ-56" value="/login (post) (login to get api key)" style="text;strokeColor=none;fillColor=none;spacingLeft=4;spacingRight=4;overflow=hidden;rotatable=0;points=[[0,0.5],[1,0.5]];portConstraint=eastwest;fontSize=12;whiteSpace=wrap;html=1;" parent="2I_HNkionEaUqbD5qXvZ-54" vertex="1">
          <mxGeometry y="56" width="200" height="30" as="geometry" />
        </mxCell>
        <mxCell id="2I_HNkionEaUqbD5qXvZ-57" value="/comp" style="swimlane;fontStyle=0;childLayout=stackLayout;horizontal=1;startSize=26;horizontalStack=0;resizeParent=1;resizeParentMax=0;resizeLast=0;collapsible=1;marginBottom=0;align=center;fontSize=14;" parent="1" vertex="1">
          <mxGeometry x="450" y="462" width="350" height="206" as="geometry" />
        </mxCell>
        <mxCell id="2I_HNkionEaUqbD5qXvZ-58" value="/all (get, auth) (returns all comps)" style="text;strokeColor=none;fillColor=none;spacingLeft=4;spacingRight=4;overflow=hidden;rotatable=0;points=[[0,0.5],[1,0.5]];portConstraint=eastwest;fontSize=12;whiteSpace=wrap;html=1;" parent="2I_HNkionEaUqbD5qXvZ-57" vertex="1">
          <mxGeometry y="26" width="350" height="30" as="geometry" />
        </mxCell>
        <mxCell id="2I_HNkionEaUqbD5qXvZ-60" value="/create (post, auth, admin) (create new comp)" style="text;strokeColor=none;fillColor=none;spacingLeft=4;spacingRight=4;overflow=hidden;rotatable=0;points=[[0,0.5],[1,0.5]];portConstraint=eastwest;fontSize=12;whiteSpace=wrap;html=1;" parent="2I_HNkionEaUqbD5qXvZ-57" vertex="1">
          <mxGeometry y="56" width="350" height="30" as="geometry" />
        </mxCell>
        <mxCell id="2I_HNkionEaUqbD5qXvZ-69" value="/teams (get, auth) (returns all teams at a comp) (Not Adding)" style="text;strokeColor=none;fillColor=none;spacingLeft=4;spacingRight=4;overflow=hidden;rotatable=0;points=[[0,0.5],[1,0.5]];portConstraint=eastwest;fontSize=12;whiteSpace=wrap;html=1;" parent="2I_HNkionEaUqbD5qXvZ-57" vertex="1">
          <mxGeometry y="86" width="350" height="30" as="geometry" />
        </mxCell>
        <mxCell id="2I_HNkionEaUqbD5qXvZ-59" value="/:compID (get, auth) (returns comp by id)" style="text;strokeColor=none;fillColor=none;spacingLeft=4;spacingRight=4;overflow=hidden;rotatable=0;points=[[0,0.5],[1,0.5]];portConstraint=eastwest;fontSize=12;whiteSpace=wrap;html=1;" parent="2I_HNkionEaUqbD5qXvZ-57" vertex="1">
          <mxGeometry y="116" width="350" height="30" as="geometry" />
        </mxCell>
        <mxCell id="2I_HNkionEaUqbD5qXvZ-61" value="/:compID (post, auth, admin) (updates comp by id)" style="text;strokeColor=none;fillColor=none;spacingLeft=4;spacingRight=4;overflow=hidden;rotatable=0;points=[[0,0.5],[1,0.5]];portConstraint=eastwest;fontSize=12;whiteSpace=wrap;html=1;" parent="2I_HNkionEaUqbD5qXvZ-57" vertex="1">
          <mxGeometry y="146" width="350" height="30" as="geometry" />
        </mxCell>
        <mxCell id="2I_HNkionEaUqbD5qXvZ-62" value="/:compID (delete, auth, admin) (deletes comp by id)" style="text;strokeColor=none;fillColor=none;spacingLeft=4;spacingRight=4;overflow=hidden;rotatable=0;points=[[0,0.5],[1,0.5]];portConstraint=eastwest;fontSize=12;whiteSpace=wrap;html=1;" parent="2I_HNkionEaUqbD5qXvZ-57" vertex="1">
          <mxGeometry y="176" width="350" height="30" as="geometry" />
        </mxCell>
        <mxCell id="2I_HNkionEaUqbD5qXvZ-63" value="/team" style="swimlane;fontStyle=0;childLayout=stackLayout;horizontal=1;startSize=26;horizontalStack=0;resizeParent=1;resizeParentMax=0;resizeLast=0;collapsible=1;marginBottom=0;align=center;fontSize=14;" parent="1" vertex="1">
          <mxGeometry x="450" y="690" width="350" height="56" as="geometry" />
        </mxCell>
        <mxCell id="2I_HNkionEaUqbD5qXvZ-64" value="/:teamNum (get, auth) (returns team by team number)" style="text;strokeColor=none;fillColor=none;spacingLeft=4;spacingRight=4;overflow=hidden;rotatable=0;points=[[0,0.5],[1,0.5]];portConstraint=eastwest;fontSize=12;whiteSpace=wrap;html=1;" parent="2I_HNkionEaUqbD5qXvZ-63" vertex="1">
          <mxGeometry y="26" width="350" height="30" as="geometry" />
        </mxCell>
        <mxCell id="2I_HNkionEaUqbD5qXvZ-66" value="/match" style="swimlane;fontStyle=0;childLayout=stackLayout;horizontal=1;startSize=26;horizontalStack=0;resizeParent=1;resizeParentMax=0;resizeLast=0;collapsible=1;marginBottom=0;align=center;fontSize=14;" parent="1" vertex="1">
          <mxGeometry x="820" y="462" width="560" height="116" as="geometry" />
        </mxCell>
        <mxCell id="2I_HNkionEaUqbD5qXvZ-67" value="/comp/:compID/all (get, auth) (returns all matches at a comp)" style="text;strokeColor=none;fillColor=none;spacingLeft=4;spacingRight=4;overflow=hidden;rotatable=0;points=[[0,0.5],[1,0.5]];portConstraint=eastwest;fontSize=12;whiteSpace=wrap;html=1;" parent="2I_HNkionEaUqbD5qXvZ-66" vertex="1">
          <mxGeometry y="26" width="560" height="30" as="geometry" />
        </mxCell>
        <mxCell id="2I_HNkionEaUqbD5qXvZ-68" value="/comp/:compID/team/:teamNum (get, auth) (returns all matches at a comp that have the team)" style="text;strokeColor=none;fillColor=none;spacingLeft=4;spacingRight=4;overflow=hidden;rotatable=0;points=[[0,0.5],[1,0.5]];portConstraint=eastwest;fontSize=12;whiteSpace=wrap;html=1;" parent="2I_HNkionEaUqbD5qXvZ-66" vertex="1">
          <mxGeometry y="56" width="560" height="30" as="geometry" />
        </mxCell>
        <mxCell id="2I_HNkionEaUqbD5qXvZ-70" value="/comp/:compID/match/:matchNum (get, auth) (returns a match at a comp by match number)" style="text;strokeColor=none;fillColor=none;spacingLeft=4;spacingRight=4;overflow=hidden;rotatable=0;points=[[0,0.5],[1,0.5]];portConstraint=eastwest;fontSize=12;whiteSpace=wrap;html=1;" parent="2I_HNkionEaUqbD5qXvZ-66" vertex="1">
          <mxGeometry y="86" width="560" height="30" as="geometry" />
        </mxCell>
      </root>
    </mxGraphModel>
  </diagram>
</mxfile>
